<?xml version="1.0" encoding="UTF-8"?><svg id="a" xmlns="http://www.w3.org/2000/svg" viewBox="0 0 203.25 196.5"><path d="M62.601,179.461c-8.067.24-15.921-.988-23.627-3.273-2.998-.889-5.873-2.084-8.581-3.653-8.368-4.848-10.485-12.034-5.894-20.527,5.318-9.837,10.921-19.524,16.111-29.427,7.913-15.096,14.857-30.643,21.086-46.505,1.416-3.606,3.189-7.008,5.95-9.823,4.424-4.51,9.667-5.542,15.411-3.221,2.979,1.203,5.788,2.91,8.509,4.646,10.501,6.701,21.445,7.873,33.139,3.359,12.549-4.845,18.29-2.193,22.307,10.602,7.726,24.609,15.205,49.295,22.709,73.973,1.932,6.353.333,9.53-5.997,11.867-9.058,3.344-18.544,4.946-28.113,5.709-20.999,1.674-42.034,2.895-62.921,5.789-3.322.46-6.724.338-10.09.485Z" fill="#f6b032" stroke-width="0"/><path d="M75.412,54.628c-1.432.074-3.035-.363-4.368-1.292-10.324-7.198-20.961-14.061-28.551-24.409-1.757-2.395-3.317-4.977-4.634-7.637-1.56-3.15-.099-5.08,3.473-4.741,4.036.383,7.741,1.9,11.273,3.799,8.924,4.798,17.055,10.777,25.061,16.924,2.596,1.994,4.832,4.326,5.575,7.702,1.129,5.129-2.418,9.661-7.83,9.655Z" fill="#f6b032" stroke-width="0"/><path d="M135.954,47.196c-.118-3.07,1.045-5.663,3.354-7.577,9.886-8.193,20.15-15.854,32.013-21.056,1.909-.837,4.065-1.119,6.109-1.649,1.389-.361,2.808-.473,3.785.774,1.043,1.331.697,2.811.028,4.221-2.098,4.418-4.916,8.374-8.232,11.931-7.18,7.701-15.828,13.627-24.441,19.565-2.729,1.881-5.831,2.238-8.849.583-2.628-1.441-3.844-3.795-3.765-6.792Z" fill="#f6b032" stroke-width="0"/></svg>