<?xml version="1.0" encoding="UTF-8"?>
<svg version="1.1" xmlns="http://www.w3.org/2000/svg" width="144" height="147">
<path d="M0 0 C2.67577084 1.31125064 5.08590386 2.82789632 7.57421875 4.46484375 C14.87641026 9.08603741 22.49846254 9.86682343 31 9 C33.61401065 8.34366832 36.13169554 7.53943482 38.6875 6.6875 C42.44098781 5.57159822 45.08686305 5.47824841 49 6 C53.81742555 9.34546646 55.85715077 11.88536437 57.82421875 17.5234375 C58.06218674 18.19845306 58.30015472 18.87346863 58.54533386 19.56893921 C62.21739909 30.21183052 65.4151426 41.02486983 68.66088867 51.80322266 C69.62848991 55.01433772 70.60203491 58.2235087 71.57916737 61.43172646 C72.52149524 64.52883392 73.45782973 67.62774956 74.39453125 70.7265625 C74.74240189 71.87033356 75.09027252 73.01410461 75.44868469 74.1925354 C75.76959579 75.26160126 76.0905069 76.33066711 76.42114258 77.43212891 C76.70282791 78.36537994 76.98451324 79.29863098 77.2747345 80.26016235 C79.3613888 88.14292251 79.3613888 88.14292251 77.84375 91.7421875 C71.31176471 99.74110169 55.69451327 99.93992977 46 101 C38.42319166 101.72984614 30.83438661 102.33616726 23.24438477 102.91040039 C16.00196445 103.46380106 8.80659519 104.10769439 1.60546875 105.06640625 C-14.73212893 107.18572011 -35.63379304 109.00184589 -49.875 99 C-53.73770195 95.81283785 -54.87745156 93.254166 -55.3671875 88.2421875 C-55.23368889 83.50408127 -53.46237409 80.16254523 -51.125 76.125 C-50.51434692 75.01620483 -50.51434692 75.01620483 -49.89135742 73.88500977 C-47.87057793 70.23139412 -45.78106654 66.62032167 -43.66796875 63.01953125 C-37.20839844 51.8888622 -32.03713951 40.34287105 -26.99731445 28.51928711 C-13.59455384 -2.89160377 -13.59455384 -2.89160377 0 0 Z " fill="#F7B133" transform="translate(55,41)"/>
<path d="M0 0 C11.09553302 0.3698511 19.51682011 5.74640524 28.375 12 C28.94565186 12.40275146 29.51630371 12.80550293 30.10424805 13.22045898 C40.4189013 20.74108886 40.4189013 20.74108886 41.515625 25.00439453 C41.69146892 28.41372559 41.23272061 30.6419683 39.375 33.5 C36.24796721 35.47496808 34.67046053 35.41221421 31 35 C28.55953188 33.62632333 26.515431 32.30632242 24.3125 30.625 C23.705271 30.17310303 23.09804199 29.72120605 22.47241211 29.25561523 C13.26151991 22.29463826 3.66998464 14.9082477 -1 4 C-0.671875 1.6796875 -0.671875 1.6796875 0 0 Z " fill="#F7B133" transform="translate(14,0)"/>
<path d="M0 0 C0.93529352 2.50362106 1.13082845 3.65379829 0.171875 6.19140625 C-7.11102057 18.33623486 -18.27172615 28.63586308 -31 35 C-34.54231061 35.38503376 -36.36257342 35.41935959 -39.375 33.4375 C-41.6899636 29.9650546 -41.69606004 28.10675422 -41 24 C-37.30209008 18.16907304 -31.83313124 14.47656755 -26.125 10.8125 C-25.36058594 10.30525391 -24.59617187 9.79800781 -23.80859375 9.27539062 C-9.2445069 -0.25679186 -9.2445069 -0.25679186 0 0 Z " fill="#F7B133" transform="translate(143,0)"/>
</svg>
